<?xml version="1.0" encoding="utf-8"?>
<!-- Generator: Adobe Illustrator 25.0.0, SVG Export Plug-In . SVG Version: 6.00 Build 0)  -->
<svg version="1.1" id="Capa_1" xmlns="http://www.w3.org/2000/svg" xmlns:xlink="http://www.w3.org/1999/xlink" x="0px" y="0px"
	 viewBox="0 0 300 79.22" style="enable-background:new 0 0 300 79.22;" xml:space="preserve">
<style type="text/css">
	.st0{fill-rule:evenodd;clip-rule:evenodd;fill:#50B448;}
	.st1{fill:#D51D43;}
	.st2{fill-rule:evenodd;clip-rule:evenodd;fill:#004925;}
	.st3{fill:#004925;}
</style>
<g id="Ilustración_3_3_">
	<g>
		<g>
			<path class="st0" d="M61.1,25.68c-0.01,0.1-0.01,0.19-0.03,0.29c-0.36,2.9-1.1,5.82-1.88,8.7c-1.58,5.8-3.29,11.59-5,17.37
				c-0.1,0.34-0.31,0.89-1,0.89c-3.13,0-6.26,0-9.53,0c-0.45,0-0.79-0.33-0.75-0.74c0-0.04,0.01-0.07,0.02-0.11
				c0.56-1.98,1.1-3.88,1.62-5.78c0.96-3.51,1.93-7.01,2.88-10.52C53.46,33.08,57.56,29.88,61.1,25.68 M27.9,29.45
				c-0.44,1.75-0.95,3.49-1.45,5.24c3.89-6.17,7.84-10.77,11.68-14.16c-1.09-1.01-2.62-1.63-4.25-1.76
				c-2.21-0.18-4.16-0.09-6.76,0.51c-2.62,0.61-5.15,1.55-7.68,2.4c0.09-0.35,0.19-0.76,0.3-1.21c0.01-0.06,0.05-0.21,0.05-0.24
				c0-0.02,0-0.03,0-0.04c0.04-0.41-0.29-0.74-0.74-0.74c-2.84,0-8.21,0.01-8.21,0.01s-1.31-0.19-1.71,1.11
				c-0.19,0.62-0.49,1.67-0.51,1.75c-2.18,7.63-4.34,15.27-6.53,22.9c-0.47,1.65-1.56,5.19-2.07,6.84h0
				C0.02,52.11,0.01,52.15,0,52.2c-0.04,0.41,0.3,0.73,0.74,0.74c3.14,0,6.44-0.01,9.52,0c0.65,0,1.1-0.04,1.3-0.78
				c0.75-2.85,1.57-5.68,2.38-8.52c1.41-4.96,2.81-9.91,4.24-14.87c0.1-0.36,0.21-0.78,0.81-0.99c2.07-0.69,3.96-1.27,6.04-1.47
				C27.73,26.06,28.51,27.06,27.9,29.45 M99.32,30.53c-0.27,2.58-0.99,5.17-1.54,7.75c-0.17,0.8-0.86,0.72-1.47,0.72
				c-7.11,0-14.21,0.03-21.31-0.02c-1.34-0.01-1.9,0.17-2.22,1.57c-0.17,0.73-0.33,1.46-0.35,2.18c-0.04,1.68,1.1,2.97,3.29,3.09
				c3.76,0.21,7.56,0.18,11.35,0.15c1.88-0.01,3.77-0.16,5.73-0.29c0.02,0,0.03,0,0.05,0c0.45,0,0.79,0.34,0.76,0.74
				c0,0.04-0.01,0.08-0.02,0.11h0c-0.45,1.7-0.87,3.3-1.33,4.89c-0.15,0.52-0.28,0.91-0.9,1.01c-7.09,1.28-14.2,2.08-21.16,0.74
				c-6.2-1.19-9.13-4.76-8.64-10.61c0.46-5.52,1.73-10.95,5.13-15.91c3.19-4.65,7.95-7.02,13.71-7.71c4.24-0.5,8.45-0.64,12.36,0.79
				C98.01,21.66,99.84,25.55,99.32,30.53 M88.33,32.62c0.17-1.01,0.35-1.96,0.4-2.9c0.11-1.83-0.86-3.12-2.77-3.55
				c-4.9-1.11-9.54,0.77-10.8,6.32h0c-0.01,0.04-0.02,0.07-0.02,0.11c-0.04,0.41,0.3,0.74,0.75,0.74h11.55
				c0.41,0,0.77-0.27,0.86-0.62C88.32,32.69,88.33,32.63,88.33,32.62 M299.99,19.27c0.01-0.02,0.01-0.04,0.01-0.07
				c0.03-0.41-0.3-0.74-0.76-0.74c-0.02,0-0.03,0-0.05,0c-2.12,0.13-4.03,0.51-5.9,0.98c-2.15,0.55-4.19,1.54-6.29,2.34
				c0.11-0.45,0.23-0.94,0.36-1.49c0.01-0.03,0.01-0.07,0.02-0.1c0.04-0.41-0.3-0.74-0.75-0.74c-3,0-5.87,0.01-8.73-0.01
				c-0.78-0.01-0.88,0.33-1.03,0.89c-2.06,7.28-4.15,14.55-6.22,21.82c-0.93,3.28-1.84,6.55-2.79,9.92
				c-0.01,0.04-0.02,0.09-0.02,0.13c-0.04,0.41,0.3,0.74,0.75,0.74c3.29,0,6.5,0.03,9.72-0.04c0.7-0.01,0.84-0.48,0.93-0.79
				c2.13-7.39,4.25-14.78,6.28-22.18c0.29-1.05,0.84-1.52,1.89-1.64c3.12-0.36,6.23-0.69,9.35-1.08c0.96-0.12,1.11-0.29,1.19-0.53
				c0.7-2.33,1.33-4.68,2.04-7.3C299.97,19.35,299.99,19.28,299.99,19.27 M129.66,19.27c0.01-0.02,0.01-0.04,0.01-0.07
				c0.04-0.41-0.31-0.74-0.76-0.74c-0.02,0-0.03,0-0.05,0c-2.12,0.13-4.03,0.51-5.9,0.98c-2.15,0.55-4.2,1.54-6.3,2.34
				c0.11-0.45,0.23-0.94,0.36-1.49c0.01-0.03,0.01-0.07,0.01-0.1c0.04-0.41-0.3-0.74-0.76-0.74c-3,0-5.87,0.01-8.73-0.01
				c-0.78-0.01-0.87,0.33-1.03,0.89c-2.06,7.28-4.15,14.55-6.22,21.82c-0.93,3.28-1.84,6.55-2.79,9.92
				c-0.01,0.04-0.02,0.09-0.03,0.13c-0.04,0.41,0.3,0.74,0.75,0.74c3.29,0,6.5,0.03,9.71-0.04c0.7-0.01,0.84-0.48,0.93-0.79
				c2.13-7.39,4.25-14.78,6.28-22.18c0.29-1.05,0.83-1.52,1.89-1.64c3.12-0.36,6.23-0.69,9.35-1.08c0.96-0.12,1.11-0.29,1.19-0.53
				c0.71-2.33,1.33-4.68,2.05-7.3C129.64,19.35,129.66,19.28,129.66,19.27 M160.15,19.62c-5.27-1.05-10.64-1.35-16.11-0.64
				c-5.15,0.67-9.51,2.81-12.2,7.13c-3.54,5.68-5.14,11.8-5.27,18.02c-0.11,5.2,3.22,8.41,8.89,9.32
				c5.14,0.82,10.33,0.17,15.53-0.68c0.93-0.15,1.25-0.54,1.44-1.24c0.43-1.64,0.87-3.28,1.33-5.03c0.01-0.04,0.02-0.08,0.02-0.12
				c0.04-0.41-0.3-0.74-0.76-0.74c-0.01,0-0.03,0-0.04,0v0c-0.53,0.03-1.03,0.06-1.53,0.07c-3.35,0.06-6.7,0.2-10.03,0.12
				c-2.51-0.07-3.82-1.43-3.61-3.68c0.37-4.09,1.58-8.08,3.51-11.91c1.07-2.13,3-3.46,5.59-3.69c1.4-0.13,2.81-0.13,4.2-0.09
				c2.55,0.08,5.09,0.2,7.63,0.32c0.41,0,0.76-0.27,0.86-0.61c0.51-1.79,0.98-3.47,1.46-5.14C161.3,20.24,161.2,19.83,160.15,19.62
				 M232.14,19.85c0.01-0.04,0.02-0.08,0.02-0.12c0.03-0.38-0.25-0.69-0.65-0.73v0c-0.02,0-0.04,0-0.05-0.01
				c-6.87-1.23-13.83-1.71-20.96-0.28c-7.07,1.42-11.08,7.68-8.77,13.56c1.15,2.93,3.84,4.46,6.79,5.69
				c2.1,0.88,4.26,1.66,6.34,2.56c1.18,0.51,1.65,1.46,1.39,2.7c-0.25,1.16-1.02,1.93-2.22,2.41c-0.64,0.26-1.44,0.37-2.13,0.43
				c-5.28,0.48-12.64-0.32-14.19-0.44c-0.02,0-0.05,0-0.07,0c-0.4,0-0.77,0.27-0.86,0.61h0c-0.46,1.65-0.92,3.23-1.28,4.83
				c-0.06,0.26-0.12,0.72,0.81,0.87c5.16,1.04,10.47,1.33,15.84,0.9c2.67-0.21,5.45-0.78,7.98-1.7c6.8-2.48,9.94-10.16,6.33-15.01
				c-1.59-2.14-4.14-3.16-6.68-4.18c-1.88-0.75-3.79-1.44-5.66-2.21c-1.14-0.47-1.73-1.26-1.45-2.51c0.29-1.3,1.28-2.06,2.59-2.21
				c5.83-0.66,11.35,0.05,14.68,0.21h0.05c0.4,0,0.77-0.27,0.87-0.61C231.26,23.05,231.71,21.41,232.14,19.85
				C232.14,19.85,232.14,19.85,232.14,19.85 M271.9,18.78h-9.7c-0.38,0.01-0.72,0.25-0.83,0.58c-0.1,0.31-0.2,0.6-0.28,0.9
				c-2.12,7.51-4.24,15.03-6.39,22.54c-0.09,0.33-0.18,0.7-0.81,0.87c-2.62,0.73-5.23,1.36-7.87,1.62c-2.95,0.3-3.97-0.99-3.26-3.65
				c1.43-5.33,2.95-10.64,4.43-15.97c0.56-2,1.11-4,1.67-6.06c0.01-0.03,0.02-0.06,0.02-0.09c0.04-0.41-0.3-0.74-0.75-0.74h-9.67
				c-0.4,0-0.76,0.26-0.86,0.6l-0.1,0.35c-1.43,5.02-2.91,10.04-4.24,15.07c-0.89,3.36-1.84,6.75-2.25,10.14
				c-0.55,4.58,1.89,7.43,6.25,7.97c2.91,0.36,5.86,0.22,8.76-0.64c2.44-0.73,4.83-1.65,7.3-2.51c-0.11,0.5-0.22,1.01-0.34,1.56h0
				c0,0.03-0.01,0.05-0.01,0.08c-0.04,0.41,0.3,0.74,0.75,0.74h9.05c0.4-0.01,0.75-0.27,0.84-0.62c3-10.61,6-21.22,9.01-31.88
				c0.01-0.05,0.02-0.09,0.03-0.14C272.68,19.11,272.35,18.78,271.9,18.78 M198.68,22.92L198.68,22.92
				c-2.67,9.54-5.34,19.06-8.02,28.61h0c-0.1,0.34-0.45,0.6-0.85,0.61h-8.91c-0.45-0.01-0.77-0.34-0.74-0.74
				c0-0.04,0.01-0.07,0.02-0.11c0-0.02,0.01-0.03,0.01-0.05l0.73-2.65c0,0-5.03,4.77-12.63,4.46c-1.28-0.06-2.54-0.27-3.76-0.67
				c-3.45-1.16-5.12-3.47-5.7-6.47c-0.02-0.1-0.07-0.46-0.08-0.55c-0.32-3.99,0.91-8.84,1.49-10.82c0.08-0.25,0.15-0.51,0.23-0.77
				c0.03-0.09,0.05-0.14,0.05-0.14c0.2-0.64,0.4-1.27,0.63-1.9c0.79-2.19,1.7-4.4,2.96-6.43c2.91-4.69,7.72-6.58,13.21-7.09
				c5.97-0.56,11.87-0.39,17.86,0.1c2.21,0.18,3.8,1.87,3.62,3.91C198.79,22.47,198.74,22.7,198.68,22.92 M186.48,26.47
				c0.01-0.05,0.02-0.09,0.03-0.14c0.03-0.4-0.3-0.73-0.74-0.74v0c-1.84-0.01-3.56-0.03-5.29,0.02c-2.85,0.08-5.37,0.87-6.71,3.48
				c-2.12,4.13-3.35,8.44-3.75,12.85c-0.16,1.77,0.95,2.81,2.83,3.2c2.64,0.55,5.22-0.04,7.79-0.79c0.34-0.1,0.63-0.32,0.8-0.6
				c0.01-0.02,0.02-0.03,0.03-0.05c0.02-0.03,0.03-0.06,0.04-0.09c0.02-0.05,0.04-0.09,0.05-0.13
				C183.18,37.93,184.78,32.37,186.48,26.47 M291.37,49.19c0-2.13-1.63-3.75-3.77-3.75c-2.1,0-3.77,1.64-3.77,3.75
				c0,2.11,1.67,3.75,3.77,3.75C289.71,52.95,291.37,51.31,291.37,49.19 M290.71,49.19c0,1.72-1.38,3.16-3.1,3.16
				c-1.72,0-3.1-1.45-3.1-3.16c0-1.74,1.34-3.16,3.1-3.16C289.36,46.04,290.71,47.46,290.71,49.19 M289.39,51.39l-1.46-1.91
				c0.91-0.09,1.19-0.64,1.19-1.24c0-0.97-0.76-1.24-1.47-1.24h-1.53v4.38h0.7v-1.88h0.3l1.44,1.88H289.39z M288.41,48.24
				c0,0.41-0.19,0.73-0.72,0.73h-0.88v-1.4h0.87C288.19,47.57,288.41,47.82,288.41,48.24"/>
			<path class="st1" d="M26.41,34.75c0,0,7.59-10.82,23.08-14.3c0,0-21.79,8.35-28.13,32.5c0,0,4.54-9.82,19.16-14.54
				c16.01-5.17,21.11-11.86,28.65-24.82C69.18,13.59,47.09,1.92,26.41,34.75"/>
			<path class="st2" d="M47.43,35.79c-0.29,1.08-0.81,2.97-1.11,4.05c9.11-3.58,13.35-11.39,14.54-13.89
				C57.38,30.02,53.33,33.14,47.43,35.79"/>
			<path class="st3" d="M94.19,66.11c-0.7-0.24-1.49-0.36-2.18-0.36c-1.68,0-2.38,0.57-2.95,2.53l-1.09,3.87
				c-0.04,0.15-0.07,0.3-0.09,0.45c-0.07,0.66,0.24,0.92,1.14,0.92c0.94,0,2.2-0.3,3.29-0.7l0.09,1.43
				c-1.09,0.47-2.38,0.79-3.72,0.79c-1.96,0-2.69-0.92-2.55-2.32c0.02-0.15,0.07-0.45,0.17-0.81l1.09-3.85
				c0.81-2.88,2.12-3.81,4.87-3.81c0.77,0,1.75,0.17,2.46,0.47L94.19,66.11z M102.09,74.81h-1.45l0.19-1.26
				c-1.26,1.02-2.71,1.47-4.03,1.47c-1.6,0-2.1-0.87-1.98-2.07c0.03-0.25,0.1-0.53,0.17-0.81l1.16-4.11
				c0.71-2.51,1.78-3.81,5.06-3.81c1.28,0,2.67,0.32,3.65,0.7L102.09,74.81z M102.82,66c-0.54-0.15-1.25-0.26-1.97-0.26
				c-1.6,0-2.44,0.49-3.01,2.53l-1.05,3.75c-0.07,0.25-0.14,0.53-0.16,0.72c-0.05,0.49,0.13,0.77,0.77,0.77
				c1.3,0,2.52-0.72,3.83-1.81L102.82,66z M113.1,74.81h-1.53l0.24-1.26c-1.3,1.02-2.75,1.47-4.07,1.47c-1.6,0-2.08-0.87-1.96-2.07
				c0.02-0.19,0.08-0.55,0.15-0.81l1.15-4.09c0.72-2.55,1.76-3.83,5.04-3.83c0.7,0,1.44,0.11,2.12,0.28l1.22-4.3l1.82-0.25
				L113.1,74.81z M113.83,66c-0.54-0.15-1.49-0.26-2.06-0.26c-1.85,0-2.44,0.51-3.01,2.56l-1.06,3.77
				c-0.07,0.25-0.11,0.47-0.13,0.66c-0.05,0.51,0.11,0.79,0.75,0.79c1.23,0,2.61-0.77,3.88-1.73L113.83,66z M124.02,74.81h-1.45
				l0.19-1.26c-1.26,1.02-2.71,1.47-4.03,1.47c-1.6,0-2.1-0.87-1.98-2.07c0.03-0.25,0.1-0.53,0.17-0.81l1.15-4.11
				c0.71-2.51,1.78-3.81,5.06-3.81c1.28,0,2.67,0.32,3.65,0.7L124.02,74.81z M124.75,66c-0.54-0.15-1.25-0.26-1.97-0.26
				c-1.6,0-2.44,0.49-3.01,2.53l-1.05,3.75c-0.07,0.25-0.14,0.53-0.16,0.72c-0.05,0.49,0.13,0.77,0.77,0.77
				c1.3,0,2.52-0.72,3.83-1.81L124.75,66z M139.6,74.81h-1.53l0.24-1.26c-1.3,1.02-2.75,1.47-4.07,1.47c-1.6,0-2.08-0.87-1.96-2.07
				c0.02-0.19,0.08-0.55,0.15-0.81l1.15-4.09c0.71-2.55,1.76-3.83,5.04-3.83c0.7,0,1.44,0.11,2.12,0.28l1.21-4.3l1.81-0.25
				L139.6,74.81z M140.33,66c-0.54-0.15-1.48-0.26-2.06-0.26c-1.85,0-2.44,0.51-3.01,2.56l-1.06,3.77
				c-0.07,0.25-0.11,0.47-0.13,0.66c-0.05,0.51,0.11,0.79,0.75,0.79c1.23,0,2.61-0.77,3.88-1.73L140.33,66z M145.89,64.58l1.82-0.26
				l-2.95,10.49h-1.75L145.89,64.58z M146.28,62c1.08-0.51,2.18-1.11,3.35-1.87l0.54,1.17c-1.14,0.74-1.95,1.17-3.38,1.81L146.28,62
				z M155.67,74.81h-1.45l0.2-1.26c-1.26,1.02-2.71,1.47-4.03,1.47c-1.6,0-2.1-0.87-1.98-2.07c0.03-0.25,0.1-0.53,0.17-0.81
				l1.15-4.11c0.71-2.51,1.78-3.81,5.06-3.81c1.28,0,2.67,0.32,3.65,0.7L155.67,74.81z M156.4,66c-0.54-0.15-1.25-0.26-1.97-0.26
				c-1.6,0-2.43,0.49-3.01,2.53l-1.05,3.75c-0.07,0.25-0.14,0.53-0.16,0.72c-0.05,0.49,0.13,0.77,0.77,0.77
				c1.3,0,2.52-0.72,3.83-1.81L156.4,66z M178.35,66.83c0.04-0.13,0.07-0.28,0.08-0.36c0.05-0.43-0.15-0.57-0.66-0.57
				c-1.04,0-2.85,0.81-4.06,1.55l-2.07,7.36h-1.75l2.24-7.98c0.04-0.13,0.07-0.28,0.08-0.36c0.04-0.43-0.15-0.57-0.66-0.57
				c-1.04,0-2.72,0.77-4.08,1.55l-2.07,7.36h-1.75l2.88-10.24l1.56-0.26l-0.28,1.47c1.1-0.73,3.31-1.56,4.55-1.56
				c1.17,0,1.68,0.6,1.67,1.56c1.21-0.79,3.31-1.56,4.55-1.56c1.3,0,1.78,0.7,1.66,1.83c-0.02,0.24-0.08,0.55-0.18,0.89l-2.21,7.85
				h-1.75L178.35,66.83z M183.36,72.05c-0.06,0.23-0.08,0.38-0.09,0.47c-0.07,0.66,0.21,1.04,1.32,1.04c1.08,0,2.43-0.4,3.9-1.08
				l0.24,1.3c-1.39,0.73-2.81,1.25-4.54,1.25c-2.08,0-2.81-0.98-2.66-2.41c0.03-0.25,0.09-0.59,0.19-0.96l0.98-3.49
				c0.74-2.62,2.05-3.94,4.99-3.94c1.72,0,2.88,0.81,2.71,2.34c-0.18,1.75-1.08,2.62-4.1,3.6c-1.3,0.43-1.72,0.53-2.64,0.81
				L183.36,72.05z M188.75,66.77c0.07-0.68-0.4-1.11-1.33-1.11c-1.62,0-2.42,0.59-2.9,2.28l-0.4,1.43c0.59-0.17,0.94-0.28,1.98-0.58
				C187.86,68.28,188.66,67.62,188.75,66.77 M192.34,75.52c-0.35,1.26-0.56,1.64-3.52,3.7l-0.77-1.24c2.07-1.45,2.33-1.7,2.63-2.77
				l2.99-10.64l1.82-0.26L192.34,75.52z M194.9,60.21l1.81-0.25l-0.75,2.66l-1.81,0.23L194.9,60.21z M196.36,71.09l0.85-3.02
				c0.71-2.53,2.3-3.83,5.28-3.83c2.38,0,3.48,1.32,3.29,3.09c-0.02,0.15-0.04,0.38-0.14,0.72l-0.92,3.26
				c-0.65,2.34-2.03,3.72-5.24,3.72C196.52,75.03,195.72,73.32,196.36,71.09 M203.9,68.05c0.07-0.23,0.11-0.45,0.13-0.62
				c0.12-1.13-0.48-1.68-1.95-1.68c-1.7,0-2.68,0.81-3.13,2.43l-0.85,3c-0.38,1.43-0.14,2.34,1.8,2.34c1.79,0,2.68-0.77,3.12-2.32
				L203.9,68.05z M213.75,65.83c-1.24,0.64-2.4,1.36-3.45,2.09l-1.94,6.89h-1.75l2.88-10.24l1.58-0.26l-0.37,1.71
				c0.9-0.68,2.01-1.32,3.14-1.79L213.75,65.83z"/>
		</g>
	</g>
</g>
</svg>
